<svg width="368" height="465" viewBox="0 0 368 465" fill="none" xmlns="http://www.w3.org/2000/svg">
<path d="M118 201.5C112.333 206.5 100.3 221 97.5 239C94.7 257 109.667 272.167 117.5 277.5L249.5 145.5C251.833 147.833 263.8 158.8 293 188C329 224 311 262.667 297.5 277.5L210 365L247 402L309.5 339.5C329 324.333 368 283 368 239C368 195 346 163 335 152.5L251 68.5L118 201.5Z" fill="#662FE8"/>
<path d="M185.5 0L223 37.5C183.5 77.3333 97.4 164.1 69 192.5C40.6 220.9 53.8333 255.333 64 269L121 326L252 195C256.5 198 271.5 216.5 273 232C274.2 244.4 267.167 254.167 263.5 257.5L157.5 363L222.5 428L185.5 465L35.5 315C23.6667 304.333 0 273.6 0 236C0 198.4 17.6667 169 26.5 159L185.5 0Z" fill="#662FE8"/>
</svg>
